ply
format ascii 1.0
element vertex 68
property float x
property float y
property float z
end_header
-71.0232 15.9621 21.3959
-69.3663 -1.71182 24.2089
-67.0478 -18.4272 26.1426
-63.6264 -34.1453 30.2424
-58.5542 -50.5155 38.8603
-48.5135 -62.8286 53.7533
-35.8068 -70.0167 72.196
-21.2172 -77.2885 89.6744
0.117327 -81.9992 96.5428
21.1287 -77.1531 88.9715
36.0238 -70.2496 71.2508
48.7406 -63.2577 53.2384
58.5489 -51.3657 38.5923
63.2051 -35.005 30.2652
66.4108 -18.8477 26.3979
68.7034 -0.946997 24.3719
70.2229 17.6072 21.7398
-51.4439 34.7273 80.8744
-44.5871 41.0462 91.7558
-34.4971 42.7432 99.2849
-25.9473 41.6762 103.323
-16.1042 40.1365 105.646
15.7695 40.0756 105.664
25.1961 40.9358 103.099
33.965 42.1775 99.5473
44.8405 40.3606 91.7884
51.1917 36.3734 81.9136
0.491531 21.5938 110.511
0.586677 11.359 118.759
0.565322 1.54572 126.114
0.554517 -8.22545 131.829
-12.1475 -17.3442 112.397
-5.47899 -19.1462 115.793
0.0603493 -20.4111 118.477
5.24203 -19.2784 115.653
12.0794 -17.3949 112.029
-41.1202 22.7071 86.9328
-34.2391 27.1995 93.142
-25.1436 27.8628 94.9447
-17.6034 22.546 92.6368
-27.2937 19.7592 95.311
-35.2581 19.1733 93.2202
17.4885 23.4951 93.5642
25.891 28.4893 95.3524
34.3777 27.278 93.0471
41.6403 23.2799 86.9844
35.5558 19.7282 92.734
27.6961 20.1109 95.1684
-26.5046 -38.3001 98.5286
-17.0749 -33.8934 109.969
-6.89548 -31.2434 115.245
-0.168139 -32.2301 116.177
8.3589 -31.2637 114.673
18.6998 -33.9319 108.414
26.576 -38.1236 97.9658
18.7248 -42.6547 104.461
10.6817 -45.5172 111.362
-0.205684 -46.8255 114.065
-11.1363 -45.5257 111.892
-18.9012 -41.7028 104.822
-23.4521 -37.8361 99.8725
-9.37828 -37.4571 110.977
-0.291341 -37.9519 112.529
8.77688 -37.7371 111.162
24.6599 -37.7854 98.5191
8.32266 -38.7907 110.747
-0.310054 -39.4117 112.266
-10.0964 -38.4424 109.887
