####
#
# OBJ File Generated by Meshlab
#
####
# Object pyramid.obj
#
# Vertices: 5
# Faces: 6
#
####
vn -1.222615 -1.222615 -0.806662
v 0.000000 0.000000 0.000000
vn 1.222615 -1.222615 -0.806662
v 1.000000 0.000000 0.000000
vn 1.222615 1.222615 -0.806662
v 1.000000 1.000000 0.000000
vn -1.222615 1.222615 -0.806662
v 0.000000 1.000000 0.000000
vn 0.000000 0.000000 0.691696
v 0.500000 0.500000 1.600000
# 5 vertices, 0 vertices normals

f 2//2 1//1 4//4
f 2//2 4//4 3//3
f 1//1 2//2 5//5
f 1//1 5//5 4//4
f 4//4 5//5 3//3
f 2//2 3//3 5//5
# 6 faces, 0 coords texture

# End of File
